<svg version="1.2" xmlns="http://www.w3.org/2000/svg" viewBox="0 0 1024 1024" width="1024" height="1024">
	<title>car_stripe</title>
	<style>
		.s0 { opacity: .3;fill: #141414;stroke: #000000 } 
		.s1 { opacity: .3;fill: #000000;stroke: #000000 } 
		.s2 { fill: #141414;stroke: #000000 } 
		.s3 { fill: #1a0000;stroke: #000000 } 
		.s4 { fill: #000000;stroke: #000000 } 
		.s5 { opacity: .3;fill: #1a0000;stroke: #000000 } 
	</style>
	<path fill-rule="evenodd" class="s0" d="m0 1024z"/>
	<path fill-rule="evenodd" class="s0" d="m0 1024z"/>
	<g>
		<path fill-rule="evenodd" class="s1" d="m0 1024z"/>
		<path fill-rule="evenodd" class="s1" d="m0 1024z"/>
	</g>
	<g style="opacity: .3">
		<path fill-rule="evenodd" class="s2" d="m0 1024z"/>
		<path fill-rule="evenodd" class="s2" d="m0 1024z"/>
		<path fill-rule="evenodd" class="s2" d="m0 1024z"/>
		<path fill-rule="evenodd" class="s2" d="m0 1024z"/>
		<path fill-rule="evenodd" class="s2" d="m0 1024z"/>
		<path fill-rule="evenodd" class="s2" d="m0 1024z"/>
		<path fill-rule="evenodd" class="s2" d="m0 1024z"/>
		<path fill-rule="evenodd" class="s2" d="m0 1024z"/>
		<path fill-rule="evenodd" class="s2" d="m0 1024z"/>
		<path fill-rule="evenodd" class="s2" d="m0 1024z"/>
		<path fill-rule="evenodd" class="s2" d="m0 1024z"/>
		<path fill-rule="evenodd" class="s2" d="m0 1024z"/>
		<path fill-rule="evenodd" class="s2" d="m0 1024z"/>
		<path fill-rule="evenodd" class="s2" d="m0 1024z"/>
		<path fill-rule="evenodd" class="s2" d="m0 1024z"/>
	</g>
	<path fill-rule="evenodd" class="s1" d="m0 1024z"/>
	<g style="opacity: .3">
		<path fill-rule="evenodd" class="s2" d="m0 1024z"/>
		<path fill-rule="evenodd" class="s2" d="m0 1024z"/>
		<path fill-rule="evenodd" class="s2" d="m0 1024z"/>
	</g>
	<g style="opacity: .3">
		<path fill-rule="evenodd" class="s3" d="m0 1024z"/>
		<path fill-rule="evenodd" class="s2" d="m0 1024z"/>
		<path fill-rule="evenodd" class="s2" d="m0 1024z"/>
		<path fill-rule="evenodd" class="s4" d="m0 1024z"/>
		<path fill-rule="evenodd" class="s4" d="m0 1024z"/>
	</g>
	<g style="opacity: .3">
		<path fill-rule="evenodd" class="s2" d="m0 1024z"/>
		<path fill-rule="evenodd" class="s2" d="m0 1024z"/>
		<path fill-rule="evenodd" class="s2" d="m0 1024z"/>
		<path fill-rule="evenodd" class="s2" d="m0 1024z"/>
		<path fill-rule="evenodd" class="s2" d="m0 1024z"/>
		<path fill-rule="evenodd" class="s2" d="m0 1024z"/>
		<path fill-rule="evenodd" class="s2" d="m0 1024z"/>
		<path fill-rule="evenodd" class="s2" d="m0 1024z"/>
		<path fill-rule="evenodd" class="s2" d="m0 1024z"/>
		<path fill-rule="evenodd" class="s2" d="m0 1024z"/>
		<path fill-rule="evenodd" class="s2" d="m0 1024z"/>
		<path fill-rule="evenodd" class="s2" d="m0 1024z"/>
		<path fill-rule="evenodd" class="s2" d="m0 1024z"/>
		<path fill-rule="evenodd" class="s2" d="m0 1024z"/>
		<path fill-rule="evenodd" class="s2" d="m0 1024z"/>
	</g>
	<path fill-rule="evenodd" class="s1" d="m0 1024z"/>
	<g style="opacity: .3">
		<path fill-rule="evenodd" class="s2" d="m0 1024z"/>
		<path fill-rule="evenodd" class="s2" d="m0 1024z"/>
		<path fill-rule="evenodd" class="s2" d="m0 1024z"/>
	</g>
	<path fill-rule="evenodd" class="s5" d="m0 1024z"/>
</svg>